<?xml version="1.0" encoding="utf-8"?>
<!-- Generator: Adobe Illustrator 20.1.0, SVG Export Plug-In . SVG Version: 6.00 Build 0)  -->
<svg version="1.1" id="Layer_1" xmlns="http://www.w3.org/2000/svg" xmlns:xlink="http://www.w3.org/1999/xlink" x="0px" y="0px"
	 viewBox="0 0 18 14" enable-background="new 0 0 18 14" xml:space="preserve">
<g>
	<defs>
		<rect id="SVGID_1_" width="18" height="14"/>
	</defs>
	<clipPath id="SVGID_2_">
		<use xlink:href="#SVGID_1_"  overflow="visible"/>
	</clipPath>
	<g clip-path="url(#SVGID_2_)">
		<path fill="#00247D" d="M-5,0v14h28V0H-5z"/>
		<polygon fill="#FFFFFF" points="22.5,15 9,8.3 -4.5,15 -5.5,13 6.4,7 -5.5,1 -4.5,-1 9,5.7 22.5,-1 23.5,1 11.6,7 23.5,13 		"/>
		<polygon fill="#CF142B" points="22.7,14.6 9,7.8 -4.7,14.6 -5.3,13.4 7.4,7 -5.3,0.6 -4.7,-0.6 9,6.2 22.7,-0.6 23.3,0.6 10.6,7 
			23.3,13.4 		"/>
		<polygon fill="#FFFFFF" points="11.3,14 6.7,14 6.7,9.3 -5,9.3 -5,4.7 6.7,4.7 6.7,0 11.3,0 11.3,4.7 23,4.7 23,9.3 11.3,9.3 		
			"/>
		<polygon fill="#CF142B" points="10.4,14 7.6,14 7.6,8.4 -5,8.4 -5,5.6 7.6,5.6 7.6,0 10.4,0 10.4,5.6 23,5.6 23,8.4 10.4,8.4 		
			"/>
	</g>
</g>
</svg>
